<?xml version="1.0" encoding="utf-8" standalone="yes"?>
<!DOCTYPE svg PUBLIC "-//W3C//DTD SVG 1.1//EN" "http://www.w3.org/Graphics/SVG/1.1/DTD/svg11.dtd">
<svg width="926" height="326" viewBox="0 0 926 326" style="fill:none;stroke:none;fill-rule:evenodd;clip-rule:evenodd;stroke-linecap:round;stroke-linejoin:round;stroke-miterlimit:1.5;" version="1.1" xmlns="http://www.w3.org/2000/svg" xmlns:xlink="http://www.w3.org/1999/xlink"><style id="fontImports">@import url("https://fonts.googleapis.com/css2?family=Roboto:wght@400;700&amp;display=block");</style><g id="items" style="isolation: isolate"><g id="blend" style="mix-blend-mode:normal"><g id="g-root-ro_zmjc7o1wuswsm-fill" data-item-order="999964360" data-item-id="ro_zmjc7o1wuswsm" data-item-class="Shape Stroke Fill" data-item-index="none" data-renderer-id="0" transform="translate(387, 15)"><g id="ro_zmjc7o1wuswsm-fill" stroke="none" fill="#f0f0f0"><g><path d="M 34 10L 166 10C 166 10 190 10 190 34L 190 184C 190 184 190 208 166 208L 34 208C 34 208 10 208 10 184L 10 34C 10 34 10 10 34 10"></path></g></g></g><g id="g-root-ro_93zwk41wug9vw-fill" data-item-order="999981856" data-item-id="ro_93zwk41wug9vw" data-item-class="Shape Stroke Fill" data-item-index="none" data-renderer-id="0" transform="translate(3, 171)"><g id="ro_93zwk41wug9vw-fill" stroke="none" fill="#f7e6fe"><g><path d="M 22 10L 334 10C 334 10 346 10 346 22L 346 52C 346 52 346 64 334 64L 22 64C 22 64 10 64 10 52L 10 22C 10 22 10 10 22 10"></path></g></g></g><g id="g-root-ro_1q6c2ok1wuykni-fill" data-item-order="999984448" data-item-id="ro_1q6c2ok1wuykni" data-item-class="Shape Stroke Fill" data-item-index="none" data-renderer-id="0" transform="translate(615, 3)"><g id="ro_1q6c2ok1wuykni-fill" stroke="none" fill="#e9fbf3"><g><path d="M 22 10L 286 10C 286 10 298 10 298 22L 298 52C 298 52 298 64 286 64L 22 64C 22 64 10 64 10 52L 10 22C 10 22 10 10 22 10"></path></g></g></g><g id="g-root-ro_1uuwb6c1wuswel-fill" data-item-order="999988336" data-item-id="ro_1uuwb6c1wuswel" data-item-class="Shape Stroke Fill" data-item-index="none" data-renderer-id="0" transform="translate(369, 249)"><g id="ro_1uuwb6c1wuswel-fill" stroke="none" fill="#e6f9ff"><g><path d="M 22 10L 214 10C 214 10 226 10 226 22L 226 52C 226 52 226 64 214 64L 22 64C 22 64 10 64 10 52L 10 22C 10 22 10 10 22 10"></path></g></g></g><g id="g-root-ro_1hfoyac1wuyknf-fill" data-item-order="999988984" data-item-id="ro_1hfoyac1wuyknf" data-item-class="Shape Stroke Fill" data-item-index="none" data-renderer-id="0" transform="translate(135, 3)"><g id="ro_1hfoyac1wuyknf-fill" stroke="none" fill="#e6efff"><g><path d="M 22 10L 202 10C 202 10 214 10 214 22L 214 52C 214 52 214 64 202 64L 22 64C 22 64 10 64 10 52L 10 22C 10 22 10 10 22 10"></path></g></g></g><g id="g-root-ro_detitw1wuhpmu-fill" data-item-order="999990280" data-item-id="ro_detitw1wuhpmu" data-item-class="Shape Stroke Fill" data-item-index="none" data-renderer-id="0" transform="translate(615, 171)"><g id="ro_detitw1wuhpmu-fill" stroke="none" fill="#fef2e6"><g><path d="M 22 10L 178 10C 178 10 190 10 190 22L 190 52C 190 52 190 64 178 64L 22 64C 22 64 10 64 10 52L 10 22C 10 22 10 10 22 10"></path></g></g></g><g id="g-root-tran_1qbbyj81wuyjuq-fill" data-item-order="1000000000" data-item-id="tran_1qbbyj81wuyjuq" data-item-class="Icon Stroke" data-item-index="none" data-renderer-id="0" transform="translate(297, 15)"></g><g id="g-root-tx_analysis_4loexg1wuyigx-fill" data-item-order="1000000000" data-item-id="tx_analysis_4loexg1wuyigx" data-item-class="Label Stroke" data-item-index="none" data-renderer-id="0" transform="translate(147, 18)"><g id="tx_analysis_4loexg1wuyigx-fill" stroke="none" fill="#4682e3"><g><text style="font: 20px Roboto, sans-serif; white-space: pre;" font-weight="20px" font-size="Roboto," font-family="sans-serif"><tspan x="12.12" y="34" dominant-baseline="ideographic">AnalysisService</tspan></text></g></g></g><g id="g-root-1_4goj2s1wuyj9p-fill" data-item-order="1000000000" data-item-id="1_4goj2s1wuyj9p" data-item-class="Icon Stroke" data-item-index="none" data-renderer-id="0" transform="translate(627, 15)"></g><g id="g-root-cu_4o6efo1wugao5-fill" data-item-order="1000000000" data-item-id="cu_4o6efo1wugao5" data-item-class="Curve Stroke ColorStrokeGray" data-item-index="none" data-renderer-id="0" transform="translate(339, 30)"></g><g id="g-root-cu_8cwb81wugbgg-fill" data-item-order="1000000000" data-item-id="cu_8cwb81wugbgg" data-item-class="Curve Stroke ColorStrokeGray" data-item-index="none" data-renderer-id="0" transform="translate(567, 30)"></g><g id="g-root-tx_recommen_qn5klw1wuyk1w-fill" data-item-order="1000000000" data-item-id="tx_recommen_qn5klw1wuyk1w" data-item-class="Label Stroke" data-item-index="none" data-renderer-id="0" transform="translate(663, 18)"><g id="tx_recommen_qn5klw1wuyk1w-fill" stroke="none" fill="#3bc482"><g><text style="font: 20px Roboto, sans-serif; white-space: pre;" font-weight="20px" font-size="Roboto," font-family="sans-serif"><tspan x="12.76" y="34" dominant-baseline="ideographic">RecommendationService</tspan></text></g></g></g><g id="g-root-cog_141qd901wusz65-fill" data-item-order="1000000000" data-item-id="cog_141qd901wusz65" data-item-class="Icon Stroke" data-item-index="none" data-renderer-id="0" transform="translate(453, 51)"></g><g id="g-root-tx_voiceaic_1uo0wwk1wusz64-fill" data-item-order="1000000000" data-item-id="tx_voiceaic_1uo0wwk1wusz64" data-item-class="Label Stroke" data-item-index="none" data-renderer-id="0" transform="translate(411, 105)"><g id="tx_voiceaic_1uo0wwk1wusz64-fill" stroke="none" fill="#484848"><g><text style="font: 20px Roboto, sans-serif; white-space: pre;" font-weight="20px" font-size="Roboto," font-family="sans-serif"><tspan x="26.71" y="34" dominant-baseline="ideographic">Voice Data </tspan><tspan x="15.8" y="58" dominant-baseline="ideographic">Management </tspan><tspan x="41.54" y="82" dominant-baseline="ideographic">System</tspan></text></g></g></g><g id="g-root-cu_1qdty1g1wugc26-fill" data-item-order="1000000000" data-item-id="cu_1qdty1g1wugc26" data-item-class="Curve Stroke ColorStrokeGray" data-item-index="none" data-renderer-id="0" transform="translate(339, 147)"></g><g id="g-root-cu_1qdty1g1wugc23-fill" data-item-order="1000000000" data-item-id="cu_1qdty1g1wugc23" data-item-class="Curve Stroke ColorStrokeGray" data-item-index="none" data-renderer-id="0" transform="translate(567, 147)"></g><g id="g-root-tx_followup_vagy381wugao2-fill" data-item-order="1000000000" data-item-id="tx_followup_vagy381wugao2" data-item-class="Label Stroke" data-item-index="none" data-renderer-id="0" transform="translate(15, 186)"><g id="tx_followup_vagy381wugao2-fill" stroke="none" fill="#b65edf"><g><text style="font: 20px Roboto, sans-serif; white-space: pre;" font-weight="20px" font-size="Roboto," font-family="sans-serif"><tspan x="14.34" y="34" dominant-baseline="ideographic">FollowUpEffectivenessService</tspan></text></g></g></g><g id="g-root-conv_hzmwt01wug937-fill" data-item-order="1000000000" data-item-id="conv_hzmwt01wug937" data-item-class="Icon Stroke" data-item-index="none" data-renderer-id="0" transform="translate(297, 183)"></g><g id="g-root-1_qqa1781wuho1x-fill" data-item-order="1000000000" data-item-id="1_qqa1781wuho1x" data-item-class="Icon Stroke" data-item-index="none" data-renderer-id="0" transform="translate(627, 183)"></g><g id="g-root-tx_emailser_14142hg1wuhpms-fill" data-item-order="1000000000" data-item-id="tx_emailser_14142hg1wuhpms" data-item-class="Label Stroke" data-item-index="none" data-renderer-id="0" transform="translate(663, 186)"><g id="tx_emailser_14142hg1wuhpms-fill" stroke="none" fill="#dd8433"><g><text style="font: 20px Roboto, sans-serif; white-space: pre;" font-weight="20px" font-size="Roboto," font-family="sans-serif"><tspan x="12.75" y="34" dominant-baseline="ideographic">EmailService</tspan></text></g></g></g><g id="g-root-cu_1lymx041wug9op-fill" data-item-order="1000000000" data-item-id="cu_1lymx041wug9op" data-item-class="Curve Stroke ColorStrokeGray" data-item-index="none" data-renderer-id="0" transform="translate(477, 213)"></g><g id="g-root-sync_94mahg1wusy6k-fill" data-item-order="1000000000" data-item-id="sync_94mahg1wusy6k" data-item-class="Icon Stroke" data-item-index="none" data-renderer-id="0" transform="translate(381, 261)"></g><g id="g-root-tx_voicecal_mg2sus1wuswln-fill" data-item-order="1000000000" data-item-id="tx_voicecal_mg2sus1wuswln" data-item-class="Label Stroke" data-item-index="none" data-renderer-id="0" transform="translate(417, 264)"><g id="tx_voicecal_mg2sus1wuswln-fill" stroke="none" fill="#17b0e3"><g><text style="font: 20px Roboto, sans-serif; white-space: pre;" font-weight="20px" font-size="Roboto," font-family="sans-serif"><tspan x="13.89" y="34" dominant-baseline="ideographic">VoiceCallService</tspan></text></g></g></g><g id="g-root-ro_zmjc7o1wuswsm-stroke" data-item-order="999964360" data-item-id="ro_zmjc7o1wuswsm" data-item-class="Shape Stroke Fill" data-item-index="none" data-renderer-id="0" transform="translate(387, 15)"><g id="ro_zmjc7o1wuswsm-stroke" fill="none" stroke-linecap="round" stroke-linejoin="round" stroke-miterlimit="4" stroke="#484848" stroke-width="2"><g><path d="M 34 10L 166 10C 166 10 190 10 190 34L 190 184C 190 184 190 208 166 208L 34 208C 34 208 10 208 10 184L 10 34C 10 34 10 10 34 10"></path></g></g></g><g id="g-root-ro_93zwk41wug9vw-stroke" data-item-order="999981856" data-item-id="ro_93zwk41wug9vw" data-item-class="Shape Stroke Fill" data-item-index="none" data-renderer-id="0" transform="translate(3, 171)"><g id="ro_93zwk41wug9vw-stroke" fill="none" stroke-linecap="round" stroke-linejoin="round" stroke-miterlimit="4" stroke="#b65edf" stroke-width="2"><g><path d="M 22 10L 334 10C 334 10 346 10 346 22L 346 52C 346 52 346 64 334 64L 22 64C 22 64 10 64 10 52L 10 22C 10 22 10 10 22 10"></path></g></g></g><g id="g-root-ro_1q6c2ok1wuykni-stroke" data-item-order="999984448" data-item-id="ro_1q6c2ok1wuykni" data-item-class="Shape Stroke Fill" data-item-index="none" data-renderer-id="0" transform="translate(615, 3)"><g id="ro_1q6c2ok1wuykni-stroke" fill="none" stroke-linecap="round" stroke-linejoin="round" stroke-miterlimit="4" stroke="#3bc482" stroke-width="2"><g><path d="M 22 10L 286 10C 286 10 298 10 298 22L 298 52C 298 52 298 64 286 64L 22 64C 22 64 10 64 10 52L 10 22C 10 22 10 10 22 10"></path></g></g></g><g id="g-root-ro_1uuwb6c1wuswel-stroke" data-item-order="999988336" data-item-id="ro_1uuwb6c1wuswel" data-item-class="Shape Stroke Fill" data-item-index="none" data-renderer-id="0" transform="translate(369, 249)"><g id="ro_1uuwb6c1wuswel-stroke" fill="none" stroke-linecap="round" stroke-linejoin="round" stroke-miterlimit="4" stroke="#17b0e3" stroke-width="2"><g><path d="M 22 10L 214 10C 214 10 226 10 226 22L 226 52C 226 52 226 64 214 64L 22 64C 22 64 10 64 10 52L 10 22C 10 22 10 10 22 10"></path></g></g></g><g id="g-root-ro_1hfoyac1wuyknf-stroke" data-item-order="999988984" data-item-id="ro_1hfoyac1wuyknf" data-item-class="Shape Stroke Fill" data-item-index="none" data-renderer-id="0" transform="translate(135, 3)"><g id="ro_1hfoyac1wuyknf-stroke" fill="none" stroke-linecap="round" stroke-linejoin="round" stroke-miterlimit="4" stroke="#4682e3" stroke-width="2"><g><path d="M 22 10L 202 10C 202 10 214 10 214 22L 214 52C 214 52 214 64 202 64L 22 64C 22 64 10 64 10 52L 10 22C 10 22 10 10 22 10"></path></g></g></g><g id="g-root-ro_detitw1wuhpmu-stroke" data-item-order="999990280" data-item-id="ro_detitw1wuhpmu" data-item-class="Shape Stroke Fill" data-item-index="none" data-renderer-id="0" transform="translate(615, 171)"><g id="ro_detitw1wuhpmu-stroke" fill="none" stroke-linecap="round" stroke-linejoin="round" stroke-miterlimit="4" stroke="#dd8433" stroke-width="2"><g><path d="M 22 10L 178 10C 178 10 190 10 190 22L 190 52C 190 52 190 64 178 64L 22 64C 22 64 10 64 10 52L 10 22C 10 22 10 10 22 10"></path></g></g></g><g id="g-root-tran_1qbbyj81wuyjuq-stroke" data-item-order="1000000000" data-item-id="tran_1qbbyj81wuyjuq" data-item-class="Icon Stroke" data-item-index="none" data-renderer-id="0" transform="translate(297, 15)"><g id="tran_1qbbyj81wuyjuq-stroke" fill="none" stroke-linecap="round" stroke-linejoin="round" stroke-miterlimit="4" stroke="#4682e3" stroke-width="2"><g><path d="M 35 20.625L 35 18.75M 30.625 20.625L 39.375 20.625M 32.5 20.625C 32.648193 24.250475 35.210682 27.32546 38.75 28.125M 37.5 20.625C 37.351807 24.250475 34.789318 27.32546 31.25 28.125M 16.875 15.625L 16.875 13.125C 16.875 11.744288 17.994287 10.625 19.375 10.625L 30.625 10.625C 32.005714 10.625 33.125 11.744288 33.125 13.125L 33.125 15.625M 33.125 31.25L 33.125 36.875C 33.125 38.255714 32.005714 39.375 30.625 39.375L 19.375 39.375C 17.994287 39.375 16.875 38.255714 16.875 36.875L 16.875 31.25M 33.125 34.375L 16.875 34.375M 25 36.5625L 25 36.5625C 25.172588 36.5625 25.3125 36.702412 25.3125 36.875L 25.3125 36.875C 25.3125 37.047588 25.172588 37.1875 25 37.1875L 25 37.1875C 24.827412 37.1875 24.6875 37.047588 24.6875 36.875L 24.6875 36.875C 24.6875 36.702412 24.827412 36.5625 25 36.5625M 10.625 28.125L 10.625 21.875C 10.625 20.149111 12.02411 18.75 13.75 18.75C 15.47589 18.75 16.875 20.149111 16.875 21.875L 16.875 28.125M 10.625 23.75L 16.875 23.75M 24.375 18.125C 25.948788 19.30534 26.875 21.157766 26.875 23.125C 26.875 25.092234 25.948788 26.94466 24.375 28.125M 21.875 20.962502C 22.646006 21.409748 23.120571 22.233664 23.120571 23.125C 23.120571 24.016336 22.646006 24.840252 21.875 25.287498"></path></g></g></g><g id="g-root-tx_analysis_4loexg1wuyigx-stroke" data-item-order="1000000000" data-item-id="tx_analysis_4loexg1wuyigx" data-item-class="Label Stroke" data-item-index="none" data-renderer-id="0" transform="translate(147, 18)"></g><g id="g-root-1_4goj2s1wuyj9p-stroke" data-item-order="1000000000" data-item-id="1_4goj2s1wuyj9p" data-item-class="Icon Stroke" data-item-index="none" data-renderer-id="0" transform="translate(627, 15)"><g id="1_4goj2s1wuyj9p-stroke" fill="none" stroke-linecap="round" stroke-linejoin="round" stroke-miterlimit="4" stroke="#3bc482" stroke-width="2"><g><path d="M 29.205 18.33375L 30.061249 16.2325C 30.415939 15.362068 31.409187 14.944083 32.279533 15.298987C 33.149876 15.653893 33.567616 16.647242 33.212502 17.5175L 32.356251 19.6175M 29.786251 25.92L 32.356251 19.6175C 32.711243 18.747543 33.704174 18.329979 34.574215 18.684761C 35.44426 19.039543 35.862068 20.03237 35.5075 20.902498L 34.2225 24.053749M 32.295002 28.78125L 34.2225 24.053749C 34.577343 23.18321 35.570713 22.765158 36.44125 23.120001C 37.31179 23.474844 37.729843 24.46821 37.375 25.338749L 33.092503 35.838749C 31.91032 38.740021 28.599628 40.133141 25.69875 38.950001L 22.19875 37.522499C 20.399496 36.790211 19.098845 35.189735 18.75 33.278748C 18.102499 29.692499 17.77125 24.08625 17.77125 24.08625C 17.621967 23.419434 17.990173 22.745281 18.631891 22.51049C 19.273609 22.2757 19.989944 22.553043 20.30625 23.158749L 21.768749 27.5525L 26.05125 17.0525C 26.405941 16.182068 27.399187 15.764083 28.269531 16.118988C 29.139877 16.473892 29.557617 17.467241 29.202499 18.3375L 26.6325 24.639999M 15.6025 30.71875C 14.863361 30.292763 14.230079 29.705204 13.75 29L 11.61375 25.875C 10.520901 24.272585 10.321068 22.22336 11.08375 20.440001C 12.52 17.091249 15.33375 12.23 15.33375 12.23C 15.578406 11.59348 16.25629 11.236206 16.919666 11.394153C 17.583042 11.552098 18.027187 12.176523 17.95875 12.855L 16.758751 17.32625L 26.125 10.9225C 26.88154 10.420086 27.899311 10.600487 28.437078 11.332319C 28.974846 12.064153 28.842972 13.08934 28.137499 13.66125M 33.75 10.625L 33.75 11.875M 38.75 10.625L 36.875 12.5M 38.125 15.625L 39.375 15.625"></path></g></g></g><g id="g-root-cu_4o6efo1wugao5-stroke" data-item-order="1000000000" data-item-id="cu_4o6efo1wugao5" data-item-class="Curve Stroke ColorStrokeGray" data-item-index="none" data-renderer-id="0" transform="translate(339, 30)"><g id="cu_4o6efo1wugao5-stroke" fill="none" stroke-linecap="round" stroke-linejoin="round" stroke-miterlimit="4" stroke="#888888" stroke-width="2" stroke-dasharray="5.0, 7.0"><g><path d="M 58 61L 55 61L 54.9 61C 43.357252 61.000001 34.000002 51.642752 34.000002 40.1L 34 40L 34 30.9C 33.999998 19.357248 24.64275 10 13.1 10L 13 10L 10 10"></path></g></g></g><g id="g-root-cu_8cwb81wugbgg-stroke" data-item-order="1000000000" data-item-id="cu_8cwb81wugbgg" data-item-class="Curve Stroke ColorStrokeGray" data-item-index="none" data-renderer-id="0" transform="translate(567, 30)"><g id="cu_8cwb81wugbgg-stroke" fill="none" stroke-linecap="round" stroke-linejoin="round" stroke-miterlimit="4" stroke="#888888" stroke-width="2" stroke-dasharray="5.0, 7.0"><g><path d="M 10 61L 13 61L 13.1 61C 24.642753 60.999998 34.000001 51.642749 34.000001 40.099998L 34 40L 34 30.9C 33.999999 19.357249 43.357248 10.000001 54.899999 10.000002L 55 10L 58 10"></path></g></g></g><g id="g-root-tx_recommen_qn5klw1wuyk1w-stroke" data-item-order="1000000000" data-item-id="tx_recommen_qn5klw1wuyk1w" data-item-class="Label Stroke" data-item-index="none" data-renderer-id="0" transform="translate(663, 18)"></g><g id="g-root-cog_141qd901wusz65-stroke" data-item-order="1000000000" data-item-id="cog_141qd901wusz65" data-item-class="Icon Stroke" data-item-index="none" data-renderer-id="0" transform="translate(453, 51)"><g id="cog_141qd901wusz65-stroke" fill="none" stroke-linecap="round" stroke-linejoin="round" stroke-miterlimit="4" stroke="#484848" stroke-width="2"><g><path d="M 26.799999 33.489998C 26.800001 29.51355 30.02355 26.290001 34 26.290001C 37.976448 26.290001 41.200001 29.51355 41.200001 33.489998M 18.939999 40.779999L 18.916 40.779999C 14.896133 41.675079 12.037029 45.241688 12.038 49.360001L 12.038 51.098C 12.037469 51.874718 12.345783 52.619774 12.895005 53.168995C 13.444227 53.71822 14.189283 54.026531 14.966 54.026001L 22.285999 54.026001C 23.90387 54.027103 25.216 52.71587 25.216 51.098L 25.216 51.098C 25.216 49.480911 26.526911 48.169998 28.143999 48.169998L 39.856003 48.169998C 41.473091 48.169998 42.784 49.480911 42.784 51.098L 42.784 51.098C 42.784 52.71587 44.09613 54.027103 45.714001 54.026001L 53.034 54.026001C 53.810719 54.026531 54.555775 53.71822 55.104996 53.168995C 55.654217 52.619774 55.962532 51.874718 55.962002 51.098L 55.962002 49.360001C 55.961098 45.243187 53.102406 41.678757 49.084 40.784L 49.060001 40.784C 39.112526 38.857666 28.887981 38.856308 18.939999 40.779999ZM 53.098 37.515999C 53.376308 36.192726 53.517056 34.844223 53.517998 33.491997C 53.517994 32.698425 53.469234 31.905596 53.371998 31.118C 53.261425 30.164185 52.494694 29.420027 51.537998 29.337999L 48.722 29.108C 48.425602 28.090763 48.023403 27.107391 47.521999 26.174L 49.344002 24.028C 49.949627 23.333969 49.99284 22.312708 49.448002 21.57C 48.428928 20.251928 47.246071 19.069071 45.928001 18.049999C 45.185295 17.504196 44.16296 17.548283 43.470001 18.156L 41.323997 19.976C 40.390358 19.476616 39.40786 19.074503 38.391998 18.776001L 38.16 15.962C 38.078125 15.004873 37.334133 14.237475 36.380001 14.126C 34.804501 13.933921 33.211502 13.933921 31.636002 14.126C 30.68187 14.237475 29.937878 15.004873 29.856001 15.962L 29.615999 18.768C 28.60014 19.066504 27.617645 19.468616 26.684 19.968L 24.538 18.147999C 23.843124 17.542719 22.820858 17.501961 22.08 18.049999C 20.761929 19.069071 19.579071 20.251928 18.560001 21.57C 18.015163 22.312708 18.058372 23.333969 18.664001 24.028L 20.486 26.174C 19.984596 27.107391 19.582399 28.090763 19.285999 29.108L 16.469999 29.337999C 15.513308 29.420027 14.746573 30.164185 14.636 31.118C 14.538763 31.905596 14.490005 32.698425 14.49 33.491997C 14.490943 34.844223 14.631691 36.192726 14.91 37.515999"></path></g></g></g><g id="g-root-tx_voiceaic_1uo0wwk1wusz64-stroke" data-item-order="1000000000" data-item-id="tx_voiceaic_1uo0wwk1wusz64" data-item-class="Label Stroke" data-item-index="none" data-renderer-id="0" transform="translate(411, 105)"></g><g id="g-root-cu_1qdty1g1wugc26-stroke" data-item-order="1000000000" data-item-id="cu_1qdty1g1wugc26" data-item-class="Curve Stroke ColorStrokeGray" data-item-index="none" data-renderer-id="0" transform="translate(339, 147)"><g id="cu_1qdty1g1wugc26-stroke" fill="none" stroke-linecap="round" stroke-linejoin="round" stroke-miterlimit="4" stroke="#888888" stroke-width="2" stroke-dasharray="5.0, 7.0"><g><path d="M 58 10L 55 10L 54.9 10C 43.357248 10.000001 33.999999 19.357249 33.999999 30.9L 34 31L 34 40.1C 34.000001 51.642749 24.642753 60.999998 13.100002 60.999999L 13 61L 10 61"></path></g></g></g><g id="g-root-cu_1qdty1g1wugc23-stroke" data-item-order="1000000000" data-item-id="cu_1qdty1g1wugc23" data-item-class="Curve Stroke ColorStrokeGray" data-item-index="none" data-renderer-id="0" transform="translate(567, 147)"><g id="cu_1qdty1g1wugc23-stroke" fill="none" stroke-linecap="round" stroke-linejoin="round" stroke-miterlimit="4" stroke="#888888" stroke-width="2" stroke-dasharray="5.0, 7.0"><g><path d="M 10 10L 13 10L 13.1 10C 24.64275 10 33.999998 19.357248 33.999998 30.899998L 34 31L 34 40.1C 33.999999 51.642748 43.357246 60.999996 54.899997 60.999996L 55 61L 58 61"></path></g></g></g><g id="g-root-tx_followup_vagy381wugao2-stroke" data-item-order="1000000000" data-item-id="tx_followup_vagy381wugao2" data-item-class="Label Stroke" data-item-index="none" data-renderer-id="0" transform="translate(15, 186)"></g><g id="g-root-conv_hzmwt01wug937-stroke" data-item-order="1000000000" data-item-id="conv_hzmwt01wug937" data-item-class="Icon Stroke" data-item-index="none" data-renderer-id="0" transform="translate(297, 183)"><g id="conv_hzmwt01wug937-stroke" fill="none" stroke-linecap="round" stroke-linejoin="round" stroke-miterlimit="4" stroke="#b65edf" stroke-width="2"><g><path d="M 35.599998 14.865C 35.859882 15.203821 35.859882 15.674929 35.599998 16.01375C 34.625 17.289999 31.949999 20.25 28.092501 20.25C 24.234999 20.25 21.55875 17.28875 20.585001 16.012501C 20.324886 15.674221 20.324886 15.203279 20.585001 14.865C 21.55875 13.5875 24.234999 10.625 28.092501 10.625C 31.949999 10.625 34.625 13.58875 35.599998 14.865ZM 28.092501 13.31125C 29.266106 13.311251 30.217503 14.262646 30.217503 15.436251C 30.217503 16.609856 29.266106 17.561251 28.092501 17.561251C 26.918896 17.561251 25.967501 16.609856 25.967501 15.436251C 25.967501 14.262646 26.918896 13.311251 28.092501 13.311251M 12.30625 29.74625C 12.305905 31.873482 14.03027 33.598125 16.157499 33.598125C 18.284731 33.598125 20.009094 31.873482 20.008751 29.74625C 20.009094 27.61902 18.284731 25.894377 16.157499 25.894377C 14.03027 25.894377 12.305905 27.61902 12.30625 29.74625M 21.581251 39.375C 20.770643 37.074718 18.597052 35.536076 16.158125 35.536076C 13.719197 35.536076 11.545605 37.074718 10.735 39.374996M 37.041248 28.2575C 37.793411 30.05949 37.078434 32.139244 35.377239 33.09782C 33.676048 34.056396 31.52672 33.590599 30.375 32.013748M 38.911251 39.375C 38.100643 37.074718 35.927052 35.536076 33.488125 35.536076C 31.049196 35.536076 28.875603 37.074718 28.064999 39.374996M 37.34 10.625C 38.403633 10.625 39.26569 11.487614 39.264999 12.55125L 39.264999 21.537498C 39.264999 22.600647 38.403145 23.4625 37.34 23.4625L 31.5625 23.462502L 25.786249 29.24L 25.786249 23.462502L 18.786249 23.462502C 17.723101 23.4625 16.86125 22.600647 16.86125 21.537498L 16.86125 12.55125C 16.860559 11.488102 17.721851 10.62569 18.785 10.625M 13.36375 27.098749C 15.032662 28.986719 17.498562 29.970573 20.008751 29.75"></path></g></g></g><g id="g-root-1_qqa1781wuho1x-stroke" data-item-order="1000000000" data-item-id="1_qqa1781wuho1x" data-item-class="Icon Stroke" data-item-index="none" data-renderer-id="0" transform="translate(627, 183)"><g id="1_qqa1781wuho1x-stroke" fill="none" stroke-linecap="round" stroke-linejoin="round" stroke-miterlimit="4" stroke="#dd8433" stroke-width="2"><g><path d="M 29.0625 34.375L 12.8125 34.375M 20.9375 36.5625L 20.9375 36.5625C 21.110088 36.5625 21.25 36.702412 21.25 36.875L 21.25 36.875C 21.25 37.047588 21.110088 37.1875 20.9375 37.1875L 20.9375 37.1875C 20.764912 37.1875 20.625 37.047588 20.625 36.875L 20.625 36.875C 20.625 36.702412 20.764912 36.5625 20.9375 36.5625M 29.0625 28.75L 29.0625 36.875C 29.0625 38.255714 27.943213 39.375 26.5625 39.375L 15.3125 39.375C 13.931788 39.375 12.8125 38.255714 12.8125 36.875L 12.8125 13.125C 12.8125 11.744288 13.931788 10.625 15.3125 10.625L 21.5625 10.625M 36.5625 16.25L 36.5625 24.375C 36.5625 25.065357 36.002853 25.625 35.3125 25.625L 22.8125 25.625C 22.122143 25.625 21.5625 25.065357 21.5625 24.375L 21.5625 16.25M 36.5625 16.25L 36.5625 15.625C 36.5625 14.934644 36.002853 14.375 35.3125 14.375L 22.8125 14.375C 22.122143 14.375 21.5625 14.934644 21.5625 15.625L 21.5625 16.25L 28.06875 20.31625C 28.676758 20.696257 29.448244 20.696257 30.05625 20.31625Z"></path></g></g></g><g id="g-root-tx_emailser_14142hg1wuhpms-stroke" data-item-order="1000000000" data-item-id="tx_emailser_14142hg1wuhpms" data-item-class="Label Stroke" data-item-index="none" data-renderer-id="0" transform="translate(663, 186)"></g><g id="g-root-cu_1lymx041wug9op-stroke" data-item-order="1000000000" data-item-id="cu_1lymx041wug9op" data-item-class="Curve Stroke ColorStrokeGray" data-item-index="none" data-renderer-id="0" transform="translate(477, 213)"><g id="cu_1lymx041wug9op-stroke" fill="none" stroke-linecap="round" stroke-linejoin="round" stroke-miterlimit="4" stroke="#888888" stroke-width="2" stroke-dasharray="5.0, 7.0"><g><path d="M 10 10L 10 28L 10 46"></path></g></g></g><g id="g-root-sync_94mahg1wusy6k-stroke" data-item-order="1000000000" data-item-id="sync_94mahg1wusy6k" data-item-class="Icon Stroke" data-item-index="none" data-renderer-id="0" transform="translate(381, 261)"><g id="sync_94mahg1wusy6k-stroke" fill="none" stroke-linecap="round" stroke-linejoin="round" stroke-miterlimit="4" stroke="#17b0e3" stroke-width="2"><g><path d="M 34.375 12.82375L 15.625 12.82375C 12.863576 12.82375 10.625 15.062326 10.625 17.82375L 10.625 27.82375C 10.625 30.585175 12.863576 32.82375 15.625 32.82375L 16.875 32.82375L 16.9725 36.57375C 16.979139 36.819481 17.129206 37.038494 17.355963 37.133404C 17.58272 37.228313 17.844053 37.181488 18.02375 37.013748L 22.5 32.82375L 27.5 32.82375L 32.18 37C 32.365971 37.166195 32.632946 37.20591 32.859241 37.101051C 33.085537 36.996189 33.227825 36.766823 33.221249 36.517502L 33.125 32.82375L 34.375 32.82375C 37.136425 32.82375 39.375 30.585175 39.375 27.82375L 39.375 17.82375C 39.375 15.062326 37.136425 12.82375 34.375 12.82375ZM 22.5 24.07375L 19.375 24.07375L 19.375 27.19875M 28.88875 24.684999C 28.20845 26.673792 26.276802 27.957376 24.179762 27.814137C 22.082722 27.670897 20.343554 26.136574 19.940001 24.073751M 27.5 21.57375L 30.625 21.57375L 30.625 18.44875M 21.11125 20.962502C 21.791552 18.973709 23.7232 17.690125 25.82024 17.833364C 27.91728 17.976604 29.656448 19.510927 30.060001 21.573751"></path></g></g></g><g id="g-root-tx_voicecal_mg2sus1wuswln-stroke" data-item-order="1000000000" data-item-id="tx_voicecal_mg2sus1wuswln" data-item-class="Label Stroke" data-item-index="none" data-renderer-id="0" transform="translate(417, 264)"></g></g></g></svg>